<svg id="Layer_1" data-name="Layer 1" xmlns="http://www.w3.org/2000/svg" viewBox="0 0 296.9 213.49"><defs><style>.cls-1{fill:#699943;fill-rule:evenodd;}</style></defs><title>trees</title><path class="cls-1" d="M359,457.79l12.49,26.71H308.34v17.89h-9V484.5H238.55L251,457.79H238.55L251,431.09H238.55L271.8,360,305,288.9,338.28,360l33.25,71.09H359l12.49,26.71H359ZM308.34,475H354.7l-12.49-26.71H354.7l-12.49-26.71H354.7l-24.83-53.09L305,315.36l-24.83,53.09-24.83,53.09h12.49l-12.49,26.71h12.49L255.38,475h44V445.88l-16.75-16.75L288,423.7,299.34,435V402h9v48.72l19.25-19.25,5.43,5.43-24.68,24.68V475Z" transform="translate(-157 -288.9)"/><polygon class="cls-1" points="84.39 182.64 59.61 182.64 59.61 197.92 51.92 197.92 51.92 182.64 0 182.64 10.67 159.83 0 159.83 10.67 137.02 0 137.02 28.4 76.29 56.79 15.57 85.19 76.29 97.26 102.11 91.63 112.67 78 83.52 56.79 38.16 35.59 83.52 14.38 128.87 25.05 128.87 14.38 151.68 25.05 151.68 14.38 174.49 51.92 174.49 51.92 149.66 37.61 135.35 42.25 130.71 51.92 140.38 51.92 112.14 59.61 112.14 59.61 153.75 76.05 137.31 80.69 141.94 59.61 163.02 59.61 174.49 88.34 174.49 84.39 182.64"/><polygon class="cls-1" points="212.51 182.64 237.3 182.64 237.3 197.92 244.99 197.92 244.99 182.64 296.9 182.64 286.24 159.83 296.9 159.83 286.24 137.02 296.9 137.02 268.51 76.29 240.11 15.57 211.72 76.29 199.64 102.11 205.27 112.67 218.91 83.52 240.11 38.16 261.32 83.52 282.52 128.87 271.86 128.87 282.52 151.68 271.86 151.68 282.52 174.49 244.99 174.49 244.99 149.66 259.29 135.35 254.66 130.71 244.99 140.38 244.99 112.14 237.3 112.14 237.3 153.75 220.85 137.31 216.22 141.94 237.3 163.02 237.3 174.49 208.56 174.49 212.51 182.64"/></svg>